<svg version="1.1" id="Layer_1" xmlns="http://www.w3.org/2000/svg" xmlns:xlink="http://www.w3.org/1999/xlink" x="0px"
    y="0px" viewBox="0 0 167.3 115.1" style="enable-background:new 0 0 167.3 115.1;" xml:space="preserve">
    <style type="text/css">
        .st0 {
            clip-path: url(#SVGID_2_);
        }

        .st1 {
            fill: url(#SVGID_3_);
        }

        .st2 {
            fill: url(#SVGID_4_);
        }

        .st3 {
            fill: #FFFFFF;
        }

        .st4 {
            fill: url(#SVGID_5_);
        }

        .st5 {
            fill: url(#SVGID_6_);
        }

        .st6 {
            fill: #1E0000;
        }

        .st7 {
            fill: #E6D465;
        }

        .st8 {
            fill: #DABB8E;
        }

        .st9 {
            fill: none;
            stroke: #1E0000;
            stroke-width: 1.1011;
            stroke-linecap: round;
            stroke-linejoin: round;
        }

        .st10 {
            fill: none;
            stroke: #1E0000;
            stroke-width: 1.1011;
            stroke-linecap: round;
            stroke-linejoin: round;
            stroke-dasharray: 1.0515, 2.103;
        }

        .st11 {
            fill: #F1AB1D;
        }

        .st12 {
            fill: none;
            stroke: #FFFFFF;
            stroke-width: 2;
            stroke-linecap: round;
            stroke-linejoin: round;
            stroke-miterlimit: 10;
            stroke-dasharray: 5, 5;
        }

        .st13 {
            fill: #1E0E0A;
        }

        .st14 {
            fill: #232323;
        }

        .st15 {
            fill: #52BAC6;
        }

        .st16 {
            fill: #E6DAC4;
        }

        .st17 {
            fill: #57C3C3;
        }

        .st18 {
            fill: #181B22;
        }

        .st19 {
            fill: #F3F3F3;
        }

        .st20 {
            fill: #41130E;
        }

        .st21 {
            fill: #92301E;
        }

        .st22 {
            fill: #983020;
        }

        .st23 {
            fill: url(#XMLID_115_);
        }

        .st24 {
            fill: url(#SVGID_15_);
        }

        .st25 {
            fill: url(#SVGID_16_);
        }

        .st26 {
            fill: url(#SVGID_17_);
        }

        .st27 {
            fill: url(#SVGID_18_);
        }

        .st28 {
            fill: #8B211E;
        }

        .st29 {
            fill: url(#XMLID_116_);
        }

        .st30 {
            fill: url(#SVGID_19_);
        }

        .st31 {
            fill: url(#SVGID_20_);
        }

        .st32 {
            fill: url(#SVGID_21_);
        }

        .st33 {
            fill: url(#SVGID_22_);
        }

        .st34 {
            fill: #347238;
        }

        .st35 {
            fill: #F7AC1A;
        }

        .st36 {
            fill: #61AA45;
        }

        .st37 {
            fill: none;
            stroke: #FFFFFF;
            stroke-width: 2;
            stroke-linecap: round;
            stroke-miterlimit: 10;
        }

        .st38 {
            fill: none;
            stroke: #FFFFFF;
            stroke-width: 2;
            stroke-linecap: round;
            stroke-miterlimit: 10;
            stroke-dasharray: 5, 5;
        }

        .st39 {
            fill: none;
            stroke: #FFFFFF;
            stroke-width: 2;
            stroke-linecap: round;
            stroke-miterlimit: 10;
            stroke-dasharray: 4.9427, 4.9427;
        }

        .st40 {
            fill: none;
            stroke: #FFFFFF;
            stroke-width: 2;
            stroke-linecap: round;
            stroke-miterlimit: 10;
            stroke-dasharray: 4.9959, 4.9959;
        }

        .st41 {
            fill: #61AA45;
            stroke: #FFFFFF;
            stroke-width: 2;
            stroke-linecap: round;
            stroke-miterlimit: 10;
            stroke-dasharray: 5, 5;
        }

        .st42 {
            fill: #F3A01E;
        }

        .st43 {
            fill: none;
            stroke: #FFFFFF;
            stroke-linecap: round;
            stroke-miterlimit: 10;
            stroke-dasharray: 2, 3;
        }

        .st44 {
            fill: #61AA45;
            stroke: #FFFFFF;
            stroke-linecap: round;
            stroke-miterlimit: 10;
            stroke-dasharray: 2, 3;
        }

        .st45 {
            fill: none;
            stroke: #FFFFFF;
            stroke-linecap: round;
            stroke-miterlimit: 10;
        }

        .st46 {
            fill: none;
            stroke: #FFFFFF;
            stroke-linecap: round;
            stroke-miterlimit: 10;
            stroke-dasharray: 1.8418, 2.7627;
        }

        .st47 {
            fill: none;
            stroke: #FFFFFF;
            stroke-width: 2;
            stroke-linecap: round;
            stroke-miterlimit: 10;
            stroke-dasharray: 5.4157, 5.4157;
        }

        .st48 {
            fill: none;
            stroke: #FFFFFF;
            stroke-width: 2;
            stroke-linecap: round;
            stroke-linejoin: round;
            stroke-miterlimit: 10;
            stroke-dasharray: 2, 5;
        }

        .st49 {
            fill: none;
            stroke: #FFFFFF;
            stroke-width: 2;
            stroke-linecap: round;
            stroke-linejoin: round;
        }

        .st50 {
            fill: none;
            stroke: #FFFFFF;
            stroke-width: 2;
            stroke-linecap: round;
            stroke-linejoin: round;
            stroke-dasharray: 1.9163, 4.7909;
        }

        .st51 {
            fill: none;
            stroke: #FFFFFF;
            stroke-linecap: round;
            stroke-linejoin: round;
            stroke-miterlimit: 10;
            stroke-dasharray: 2, 3;
        }

        .st52 {
            fill: none;
            stroke: #FFFFFF;
            stroke-linecap: round;
            stroke-linejoin: round;
        }

        .st53 {
            fill: none;
            stroke: #FFFFFF;
            stroke-linecap: round;
            stroke-linejoin: round;
            stroke-dasharray: 1.8066, 2.7099;
        }

        .st54 {
            fill: url(#SVGID_31_);
        }

        .st55 {
            fill: url(#SVGID_32_);
        }

        .st56 {
            fill: url(#SVGID_33_);
        }

        .st57 {
            fill: url(#SVGID_34_);
        }

        .st58 {
            fill: url(#SVGID_35_);
        }

        .st59 {
            fill: url(#SVGID_36_);
        }

        .st60 {
            fill: url(#SVGID_37_);
        }

        .st61 {
            fill: url(#SVGID_38_);
        }

        .st62 {
            fill: url(#SVGID_39_);
        }

        .st63 {
            fill: url(#SVGID_40_);
        }

        .st64 {
            fill: url(#SVGID_41_);
        }

        .st65 {
            fill: url(#SVGID_42_);
        }

        .st66 {
            fill: url(#SVGID_43_);
        }

        .st67 {
            fill: url(#SVGID_44_);
        }

        .st68 {
            fill: url(#SVGID_47_);
        }

        .st69 {
            fill: url(#SVGID_48_);
        }

        .st70 {
            fill: url(#SVGID_49_);
        }

        .st71 {
            fill: url(#SVGID_50_);
        }

        .st72 {
            fill: url(#SVGID_51_);
        }

        .st73 {
            fill: url(#SVGID_52_);
        }

        .st74 {
            fill: url(#SVGID_53_);
        }

        .st75 {
            fill: url(#SVGID_54_);
        }

        .st76 {
            fill: url(#SVGID_55_);
        }

        .st77 {
            fill: url(#SVGID_56_);
        }

        .st78 {
            fill: url(#SVGID_57_);
        }

        .st79 {
            fill: url(#SVGID_58_);
        }

        .st80 {
            fill: url(#SVGID_59_);
        }

        .st81 {
            fill: url(#SVGID_60_);
        }

        .st82 {
            fill: url(#SVGID_61_);
        }

        .st83 {
            fill: url(#SVGID_62_);
        }

        .st84 {
            fill: url(#SVGID_63_);
        }

        .st85 {
            fill: url(#SVGID_64_);
        }

        .st86 {
            fill: url(#SVGID_65_);
        }

        .st87 {
            fill: url(#SVGID_66_);
        }

        .st88 {
            fill: url(#SVGID_67_);
        }

        .st89 {
            fill: url(#SVGID_68_);
        }

        .st90 {
            fill: url(#SVGID_69_);
        }

        .st91 {
            fill: url(#SVGID_70_);
        }

        .st92 {
            fill: url(#SVGID_71_);
        }

        .st93 {
            fill: url(#SVGID_72_);
        }

        .st94 {
            fill: url(#SVGID_73_);
        }

        .st95 {
            fill: url(#SVGID_74_);
        }

        .st96 {
            fill: url(#SVGID_77_);
        }

        .st97 {
            fill: url(#SVGID_78_);
        }

        .st98 {
            fill: url(#SVGID_79_);
        }

        .st99 {
            fill: url(#SVGID_80_);
        }

        .st100 {
            fill: url(#SVGID_81_);
        }

        .st101 {
            fill: url(#SVGID_82_);
        }

        .st102 {
            fill: url(#SVGID_83_);
        }

        .st103 {
            fill: url(#SVGID_84_);
        }

        .st104 {
            fill: url(#SVGID_85_);
        }

        .st105 {
            fill: url(#SVGID_86_);
        }

        .st106 {
            fill: url(#SVGID_87_);
        }

        .st107 {
            fill: url(#SVGID_88_);
        }

        .st108 {
            fill: #61AA45;
            stroke: #FFFFFF;
            stroke-width: 2.3181;
            stroke-linecap: round;
            stroke-miterlimit: 10;
            stroke-dasharray: 5.7952, 5.7952;
        }

        .st109 {
            fill: url(#SVGID_89_);
        }

        .st110 {
            fill: url(#SVGID_90_);
        }

        .st111 {
            fill: none;
            stroke: #FFFFFF;
            stroke-width: 1.159;
            stroke-linecap: round;
            stroke-linejoin: round;
        }

        .st112 {
            fill: none;
            stroke: #FFFFFF;
            stroke-width: 1.159;
            stroke-linecap: round;
            stroke-linejoin: round;
            stroke-dasharray: 0.6045, 1.209;
        }

        .st113 {
            fill: url(#SVGID_95_);
        }

        .st114 {
            fill: url(#SVGID_96_);
        }

        .st115 {
            fill: url(#SVGID_97_);
        }

        .st116 {
            fill: url(#SVGID_98_);
        }

        .st117 {
            fill: url(#SVGID_99_);
        }

        .st118 {
            fill: url(#SVGID_100_);
        }

        .st119 {
            fill: url(#SVGID_101_);
        }

        .st120 {
            fill: url(#SVGID_102_);
        }

        .st121 {
            fill: url(#SVGID_103_);
        }

        .st122 {
            fill: url(#SVGID_104_);
        }

        .st123 {
            fill: url(#SVGID_105_);
        }

        .st124 {
            fill: url(#SVGID_106_);
        }

        .st125 {
            fill: url(#SVGID_107_);
        }

        .st126 {
            fill: url(#SVGID_108_);
        }

        .st127 {
            fill: none;
            stroke: #FFFFFF;
            stroke-linecap: round;
            stroke-linejoin: round;
            stroke-dasharray: 0.5535, 1.107;
        }

        .st128 {
            fill: url(#SVGID_111_);
        }

        .st129 {
            fill: url(#SVGID_112_);
        }

        .st130 {
            fill: url(#SVGID_113_);
        }

        .st131 {
            fill: url(#SVGID_114_);
        }

        .st132 {
            fill: none;
            stroke: #1E0000;
            stroke-linecap: round;
            stroke-linejoin: round;
        }

        .st133 {
            fill: none;
            stroke: #1E0000;
            stroke-linecap: round;
            stroke-linejoin: round;
            stroke-dasharray: 1.0974, 2.1948;
        }

        .st134 {
            clip-path: url(#SVGID_116_);
        }

        .st135 {
            fill: url(#SVGID_117_);
        }

        .st136 {
            fill: url(#SVGID_118_);
        }

        .st137 {
            fill: url(#SVGID_119_);
        }

        .st138 {
            fill: url(#SVGID_120_);
        }

        .st139 {
            clip-path: url(#SVGID_122_);
        }

        .st140 {
            fill: url(#SVGID_123_);
        }

        .st141 {
            fill: url(#SVGID_124_);
        }

        .st142 {
            fill: url(#SVGID_125_);
        }

        .st143 {
            fill: url(#SVGID_126_);
        }

        .st144 {
            clip-path: url(#SVGID_128_);
            fill: url(#SVGID_129_);
        }

        .st145 {
            clip-path: url(#SVGID_128_);
            fill: url(#SVGID_130_);
        }

        .st146 {
            clip-path: url(#SVGID_128_);
            fill: url(#SVGID_131_);
        }

        .st147 {
            clip-path: url(#SVGID_128_);
            fill: url(#SVGID_132_);
        }

        .st148 {
            clip-path: url(#SVGID_128_);
            fill: url(#SVGID_133_);
        }

        .st149 {
            clip-path: url(#SVGID_128_);
            fill: url(#SVGID_134_);
        }

        .st150 {
            clip-path: url(#SVGID_128_);
            fill: #1F0400;
        }

        .st151 {
            clip-path: url(#SVGID_128_);
            fill: url(#SVGID_135_);
        }

        .st152 {
            clip-path: url(#SVGID_128_);
            fill: url(#SVGID_136_);
        }

        .st153 {
            clip-path: url(#SVGID_128_);
            fill: url(#SVGID_137_);
        }

        .st154 {
            clip-path: url(#SVGID_128_);
            fill: url(#SVGID_138_);
        }

        .st155 {
            clip-path: url(#SVGID_128_);
        }

        .st156 {
            fill: url(#SVGID_139_);
        }

        .st157 {
            fill: url(#SVGID_140_);
        }

        .st158 {
            fill: url(#SVGID_141_);
        }

        .st159 {
            fill: url(#SVGID_142_);
        }

        .st160 {
            fill: url(#SVGID_143_);
        }

        .st161 {
            fill: url(#SVGID_144_);
        }

        .st162 {
            fill: url(#SVGID_145_);
        }

        .st163 {
            fill: url(#SVGID_146_);
        }

        .st164 {
            fill: url(#SVGID_147_);
        }

        .st165 {
            fill: url(#SVGID_148_);
        }

        .st166 {
            fill: url(#SVGID_149_);
        }

        .st167 {
            fill: url(#SVGID_150_);
        }

        .st168 {
            fill: url(#SVGID_151_);
        }

        .st169 {
            fill: url(#SVGID_152_);
        }

        .st170 {
            fill: url(#SVGID_153_);
        }

        .st171 {
            fill: url(#SVGID_154_);
        }

        .st172 {
            fill: url(#SVGID_155_);
        }

        .st173 {
            fill: url(#SVGID_156_);
        }

        .st174 {
            fill: url(#SVGID_157_);
        }

        .st175 {
            fill: url(#SVGID_158_);
        }

        .st176 {
            fill: url(#SVGID_159_);
        }

        .st177 {
            fill: url(#SVGID_160_);
        }

        .st178 {
            fill: url(#SVGID_161_);
        }

        .st179 {
            fill: url(#SVGID_162_);
        }

        .st180 {
            fill: url(#SVGID_163_);
        }

        .st181 {
            fill: url(#SVGID_164_);
        }

        .st182 {
            fill: url(#SVGID_165_);
        }

        .st183 {
            fill: url(#SVGID_166_);
        }

        .st184 {
            fill: url(#SVGID_167_);
        }

        .st185 {
            fill: url(#SVGID_168_);
        }

        .st186 {
            fill: url(#SVGID_169_);
        }

        .st187 {
            fill: url(#SVGID_170_);
        }

        .st188 {
            fill: url(#SVGID_171_);
        }

        .st189 {
            fill: url(#SVGID_172_);
        }

        .st190 {
            fill: url(#SVGID_173_);
        }

        .st191 {
            fill: url(#SVGID_174_);
        }

        .st192 {
            fill: url(#SVGID_175_);
        }

        .st193 {
            fill: url(#SVGID_176_);
        }

        .st194 {
            fill: url(#SVGID_177_);
        }

        .st195 {
            fill: url(#SVGID_178_);
        }

        .st196 {
            fill: url(#SVGID_179_);
        }

        .st197 {
            fill: url(#SVGID_180_);
        }

        .st198 {
            fill: url(#SVGID_181_);
        }

        .st199 {
            fill: url(#SVGID_182_);
        }

        .st200 {
            fill: url(#SVGID_183_);
        }

        .st201 {
            fill: url(#SVGID_184_);
        }

        .st202 {
            fill: url(#SVGID_185_);
        }

        .st203 {
            fill: url(#SVGID_186_);
        }

        .st204 {
            fill: url(#SVGID_187_);
        }

        .st205 {
            fill: url(#SVGID_188_);
        }

        .st206 {
            fill: url(#SVGID_189_);
        }

        .st207 {
            fill: url(#SVGID_190_);
        }

        .st208 {
            fill: url(#SVGID_191_);
        }

        .st209 {
            clip-path: url(#SVGID_195_);
            fill: url(#SVGID_196_);
        }

        .st210 {
            clip-path: url(#SVGID_195_);
            fill: url(#SVGID_197_);
        }

        .st211 {
            clip-path: url(#SVGID_195_);
            fill: url(#SVGID_198_);
        }

        .st212 {
            clip-path: url(#SVGID_195_);
            fill: url(#SVGID_199_);
        }

        .st213 {
            clip-path: url(#SVGID_195_);
            fill: url(#SVGID_200_);
        }

        .st214 {
            clip-path: url(#SVGID_195_);
            fill: url(#SVGID_201_);
        }

        .st215 {
            clip-path: url(#SVGID_195_);
            fill: #1F0400;
        }

        .st216 {
            clip-path: url(#SVGID_195_);
            fill: url(#SVGID_202_);
        }

        .st217 {
            clip-path: url(#SVGID_195_);
            fill: url(#SVGID_203_);
        }

        .st218 {
            clip-path: url(#SVGID_195_);
            fill: url(#SVGID_204_);
        }

        .st219 {
            clip-path: url(#SVGID_195_);
            fill: url(#SVGID_205_);
        }

        .st220 {
            clip-path: url(#SVGID_195_);
        }

        .st221 {
            fill: url(#SVGID_206_);
        }

        .st222 {
            fill: url(#SVGID_207_);
        }

        .st223 {
            fill: url(#SVGID_208_);
        }

        .st224 {
            fill: url(#SVGID_209_);
        }

        .st225 {
            fill: url(#SVGID_210_);
        }

        .st226 {
            fill: url(#SVGID_211_);
        }

        .st227 {
            fill: url(#SVGID_212_);
        }

        .st228 {
            fill: url(#SVGID_213_);
        }

        .st229 {
            fill: url(#SVGID_214_);
        }

        .st230 {
            fill: url(#SVGID_215_);
        }

        .st231 {
            fill: url(#SVGID_216_);
        }

        .st232 {
            fill: url(#SVGID_217_);
        }

        .st233 {
            fill: url(#SVGID_218_);
        }

        .st234 {
            fill: url(#SVGID_219_);
        }

        .st235 {
            fill: url(#SVGID_220_);
        }

        .st236 {
            fill: url(#SVGID_221_);
        }

        .st237 {
            fill: url(#SVGID_222_);
        }

        .st238 {
            fill: url(#SVGID_223_);
        }

        .st239 {
            fill: url(#SVGID_224_);
        }

        .st240 {
            fill: url(#SVGID_225_);
        }

        .st241 {
            fill: url(#SVGID_226_);
        }

        .st242 {
            fill: url(#SVGID_227_);
        }

        .st243 {
            fill: url(#SVGID_228_);
        }

        .st244 {
            fill: url(#SVGID_229_);
        }

        .st245 {
            fill: url(#SVGID_230_);
        }

        .st246 {
            fill: url(#SVGID_231_);
        }

        .st247 {
            fill: url(#SVGID_232_);
        }

        .st248 {
            fill: url(#SVGID_233_);
        }

        .st249 {
            fill: url(#SVGID_234_);
        }

        .st250 {
            fill: url(#SVGID_235_);
        }

        .st251 {
            fill: url(#SVGID_236_);
        }

        .st252 {
            fill: url(#SVGID_237_);
        }

        .st253 {
            fill: url(#SVGID_238_);
        }

        .st254 {
            fill: url(#SVGID_239_);
        }

        .st255 {
            fill: url(#SVGID_240_);
        }

        .st256 {
            fill: url(#SVGID_241_);
        }

        .st257 {
            fill: url(#SVGID_242_);
        }

        .st258 {
            fill: url(#SVGID_243_);
        }

        .st259 {
            fill: url(#SVGID_244_);
        }

        .st260 {
            fill: url(#SVGID_245_);
        }

        .st261 {
            fill: url(#SVGID_246_);
        }

        .st262 {
            fill: url(#SVGID_247_);
        }

        .st263 {
            fill: url(#SVGID_248_);
        }

        .st264 {
            fill: url(#SVGID_249_);
        }

        .st265 {
            fill: url(#SVGID_250_);
        }

        .st266 {
            fill: url(#SVGID_251_);
        }

        .st267 {
            fill: url(#SVGID_252_);
        }

        .st268 {
            fill: url(#SVGID_253_);
        }

        .st269 {
            fill: url(#SVGID_254_);
        }

        .st270 {
            fill: url(#SVGID_255_);
        }

        .st271 {
            fill: url(#SVGID_256_);
        }

        .st272 {
            fill: url(#SVGID_257_);
        }

        .st273 {
            fill: url(#SVGID_258_);
        }

        .st274 {
            fill: url(#SVGID_259_);
        }

        .st275 {
            fill: url(#SVGID_260_);
        }

        .st276 {
            fill: url(#SVGID_261_);
        }

        .st277 {
            fill: url(#SVGID_262_);
        }

        .st278 {
            fill: url(#SVGID_263_);
        }

        .st279 {
            fill: none;
            stroke: #1E0000;
            stroke-linecap: round;
            stroke-linejoin: round;
            stroke-dasharray: 1.2315, 2.4631;
        }

        .st280 {
            fill: url(#SVGID_264_);
        }

        .st281 {
            fill: url(#SVGID_265_);
        }

        .st282 {
            fill: url(#SVGID_266_);
        }

        .st283 {
            fill: url(#SVGID_267_);
        }

        .st284 {
            fill: url(#SVGID_268_);
        }

        .st285 {
            fill: url(#SVGID_269_);
        }

        .st286 {
            fill: url(#SVGID_270_);
        }

        .st287 {
            fill: url(#SVGID_271_);
        }

        .st288 {
            fill: url(#SVGID_272_);
        }

        .st289 {
            fill: url(#SVGID_273_);
        }

        .st290 {
            fill: url(#SVGID_274_);
        }

        .st291 {
            fill: url(#SVGID_275_);
        }

        .st292 {
            fill: url(#SVGID_276_);
        }

        .st293 {
            fill: url(#SVGID_277_);
        }

        .st294 {
            clip-path: url(#SVGID_279_);
        }

        .st295 {
            fill: url(#SVGID_280_);
        }

        .st296 {
            fill: url(#SVGID_281_);
        }

        .st297 {
            fill: url(#SVGID_282_);
        }

        .st298 {
            fill: url(#SVGID_283_);
        }

        .st299 {
            fill: #1B2C3B;
        }

        .st300 {
            fill: none;
            stroke: #1B2C3B;
            stroke-miterlimit: 10;
        }

        .st301 {
            fill: none;
            stroke: #1E0E0A;
            stroke-miterlimit: 10;
        }

        .st302 {
            fill: url(#SVGID_286_);
        }

        .st303 {
            fill: url(#SVGID_287_);
        }

        .st304 {
            clip-path: url(#SVGID_289_);
        }

        .st305 {
            fill: url(#SVGID_290_);
        }

        .st306 {
            fill: url(#SVGID_291_);
        }

        .st307 {
            fill: url(#SVGID_292_);
        }

        .st308 {
            fill: url(#SVGID_293_);
        }

        .st309 {
            fill: none;
            stroke: #1B2C3B;
            stroke-width: 2.4237;
            stroke-miterlimit: 10;
        }

        .st310 {
            fill: url(#SVGID_296_);
        }

        .st311 {
            fill: url(#SVGID_297_);
        }

        .st312 {
            fill: none;
            stroke: #1B2C3B;
            stroke-width: 1.1066;
            stroke-miterlimit: 10;
        }

        .st313 {
            fill: none;
            stroke: #1B2C3B;
            stroke-width: 1.8734;
            stroke-miterlimit: 10;
        }

        .st314 {
            fill: none;
            stroke: #1B2C3B;
            stroke-width: 3;
            stroke-miterlimit: 10;
        }

        .st315 {
            fill: none;
            stroke: #723900;
            stroke-width: 1.0191;
            stroke-miterlimit: 10;
        }

        .st316 {
            fill: #723900;
        }

        .st317 {
            fill: none;
            stroke: #723900;
            stroke-width: 1.632;
            stroke-miterlimit: 10;
        }

        .st318 {
            fill: url(#SVGID_300_);
        }

        .st319 {
            fill: none;
            stroke: #1B2C3B;
            stroke-width: 1.0191;
            stroke-miterlimit: 10;
        }

        .st320 {
            fill: none;
            stroke: #1B2C3B;
            stroke-width: 1.632;
            stroke-miterlimit: 10;
        }

        .st321 {
            fill: none;
            stroke: #723900;
            stroke-width: 1.6288;
            stroke-miterlimit: 10;
        }

        .st322 {
            fill: none;
            stroke: #723900;
            stroke-width: 2.6083;
            stroke-miterlimit: 10;
        }

        .st323 {
            clip-path: url(#SVGID_302_);
        }

        .st324 {
            fill: url(#SVGID_303_);
        }

        .st325 {
            fill: url(#SVGID_304_);
        }

        .st326 {
            fill: url(#SVGID_305_);
        }

        .st327 {
            fill: url(#SVGID_306_);
        }

        .st328 {
            fill: url(#SVGID_309_);
        }

        .st329 {
            fill: none;
            stroke: #244A23;
            stroke-width: 1.0191;
            stroke-miterlimit: 10;
        }

        .st330 {
            fill: #244A23;
        }

        .st331 {
            fill: none;
            stroke: #244A23;
            stroke-width: 1.632;
            stroke-miterlimit: 10;
        }

        .st332 {
            fill: none;
            stroke: #244A23;
            stroke-width: 1.6288;
            stroke-miterlimit: 10;
        }

        .st333 {
            fill: none;
            stroke: #244A23;
            stroke-width: 2.6083;
            stroke-miterlimit: 10;
        }

        .st334 {
            clip-path: url(#SVGID_311_);
        }

        .st335 {
            fill: url(#SVGID_312_);
        }

        .st336 {
            fill: url(#SVGID_313_);
        }

        .st337 {
            fill: url(#SVGID_314_);
        }

        .st338 {
            fill: url(#SVGID_315_);
        }

        .st339 {
            fill: url(#SVGID_318_);
        }

        .st340 {
            fill: none;
            stroke: #990517;
            stroke-width: 1.0191;
            stroke-miterlimit: 10;
        }

        .st341 {
            fill: #990517;
        }

        .st342 {
            fill: none;
            stroke: #990517;
            stroke-width: 1.632;
            stroke-miterlimit: 10;
        }

        .st343 {
            fill: none;
            stroke: #0B4500;
            stroke-width: 1.6288;
            stroke-miterlimit: 10;
        }

        .st344 {
            fill: #0B4500;
        }

        .st345 {
            fill: none;
            stroke: #0B4500;
            stroke-width: 2.6083;
            stroke-miterlimit: 10;
        }

        .st346 {
            clip-path: url(#SVGID_320_);
        }

        .st347 {
            fill: url(#SVGID_321_);
        }

        .st348 {
            fill: url(#SVGID_322_);
        }

        .st349 {
            fill: url(#SVGID_323_);
        }

        .st350 {
            fill: url(#SVGID_324_);
        }

        .st351 {
            fill: none;
            stroke: #1B2C3B;
            stroke-width: 1.6288;
            stroke-miterlimit: 10;
        }

        .st352 {
            fill: none;
            stroke: #1B2C3B;
            stroke-width: 2.6083;
            stroke-miterlimit: 10;
        }
    </style>
    <g>
        <g id="XMLID_129_">
            <path class="st316"
                d="M54.2,28.3c-0.5-0.6-0.7-1.2-0.7-1.7c0.1-0.6,0.4-1.2,1.1-1.8c0.3-0.2,0.5-0.4,0.8-0.6    c0.3-0.2,0.5-0.3,0.7-0.4c0.1,0,0.2,0,0.3,0c0.1,0,0.1,0.1,0.2,0.2l0.4,0.4c-0.3,0.2-0.5,0.3-0.8,0.5c-0.3,0.2-0.5,0.4-0.8,0.6    c-0.2,0.2-0.4,0.4-0.5,0.6c-0.1,0.2-0.2,0.3-0.2,0.5c0,0.2,0,0.3,0,0.5c0.1,0.1,0.2,0.3,0.3,0.4c0.1,0.2,0.3,0.3,0.4,0.3    c0.1,0.1,0.3,0.1,0.5,0.1c0.2,0,0.4-0.1,0.6-0.1c0.2-0.1,0.5-0.2,0.8-0.3c0.3-0.1,0.6-0.2,0.9-0.3C58.5,27,58.8,27,59,27    c0.3,0,0.5,0.1,0.8,0.2c0.3,0.1,0.5,0.3,0.8,0.6c0.6,0.7,0.8,1.3,0.7,1.9c-0.1,0.6-0.5,1.2-1.2,1.8c-0.3,0.3-0.6,0.5-0.9,0.7    c-0.3,0.2-0.6,0.3-0.8,0.4c-0.1,0-0.2,0-0.3,0c-0.1,0-0.1-0.1-0.2-0.1l-0.4-0.5c0.2-0.2,0.5-0.3,0.8-0.5c0.3-0.2,0.6-0.4,0.9-0.7    c0.3-0.2,0.4-0.4,0.6-0.6c0.1-0.2,0.2-0.4,0.2-0.5c0-0.2,0-0.3-0.1-0.5c-0.1-0.2-0.2-0.3-0.3-0.5c-0.2-0.2-0.3-0.3-0.4-0.4    c-0.1-0.1-0.3-0.1-0.5-0.1c-0.2,0-0.4,0.1-0.6,0.1c-0.2,0.1-0.5,0.2-0.8,0.3c-0.3,0.1-0.6,0.2-0.9,0.3c-0.3,0.1-0.6,0.1-0.8,0.1    c-0.3,0-0.5-0.1-0.8-0.2C54.7,28.8,54.4,28.6,54.2,28.3z" />
            <path class="st316"
                d="M59.5,22.7c-0.2,0.2-0.4,0.2-0.6,0.2c-0.2,0-0.3-0.1-0.4-0.3c-0.1-0.2-0.2-0.4-0.1-0.5    c0-0.2,0.2-0.3,0.4-0.5c0.2-0.1,0.4-0.2,0.6-0.2c0.2,0,0.3,0.1,0.4,0.3c0.1,0.2,0.2,0.4,0.1,0.5S59.7,22.6,59.5,22.7z M64.1,28.3    l-0.8,0.5c-0.2,0.1-0.3,0.1-0.4-0.1l-3.4-4.9l0.8-0.5c0.2-0.1,0.3-0.1,0.4,0.1L64.1,28.3z" />
            <path class="st316"
                d="M65.4,27.4c-0.2,0.1-0.3,0.1-0.4-0.1L62.2,22l0.7-0.3c0.1,0,0.2-0.1,0.2-0.1c0.1,0,0.1,0.1,0.2,0.2l0.2,0.3    c0.2-0.7,0.6-1.3,1.3-1.6c0.6-0.3,1.1-0.4,1.5-0.2c0.4,0.2,0.8,0.6,1.1,1.2l2,3.7l-0.8,0.4c-0.1,0-0.2,0.1-0.2,0    c-0.1,0-0.1-0.1-0.2-0.1l-1.8-3.4c-0.2-0.4-0.4-0.6-0.7-0.7c-0.2-0.1-0.5,0-0.8,0.1c-0.3,0.2-0.5,0.4-0.7,0.6    c-0.1,0.2-0.2,0.4-0.3,0.6l2.2,4.1L65.4,27.4z" />
            <path class="st316"
                d="M74.3,23.2c-0.1,0.1-0.4,0.3-0.6,0.4c-0.3,0.2-0.5,0.3-0.8,0.4c-0.4,0.2-0.8,0.2-1.2,0.2    c-0.3,0-0.7-0.1-0.9-0.3c-0.3-0.2-0.5-0.5-0.7-0.8c-0.2-0.3-0.4-0.8-0.6-1.2c-0.4-1.1-0.5-1.9-0.3-2.5c0.2-0.6,0.7-1.1,1.5-1.4    c0.3-0.1,0.5-0.2,0.8-0.2c0.3,0,0.5-0.1,0.6-0.1c0.1,0,0.2,0,0.2,0.1c0.1,0.1,0.1,0.1,0.1,0.2l0.2,0.5c-0.3,0-0.5,0.1-0.7,0.2    s-0.4,0.1-0.6,0.2c-0.3,0.1-0.5,0.2-0.6,0.3c-0.2,0.1-0.3,0.3-0.3,0.5c-0.1,0.2-0.1,0.4,0,0.7c0,0.3,0.1,0.6,0.3,1    c0.2,0.4,0.3,0.8,0.5,1c0.2,0.3,0.3,0.4,0.5,0.6c0.2,0.1,0.3,0.2,0.5,0.2c0.2,0,0.4,0,0.6-0.1c0.2-0.1,0.4-0.2,0.6-0.3    c0.2-0.1,0.3-0.2,0.4-0.2c0.2-0.1,0.3,0,0.4,0.2L74.3,23.2z" />
            <path class="st316"
                d="M75.5,20.4c0.1,0.3,0.2,0.6,0.3,0.8s0.2,0.4,0.4,0.5c0.2,0.1,0.4,0.2,0.6,0.2c0.2,0,0.5,0,0.9-0.1    c0.3-0.1,0.6-0.1,0.8-0.2c0.2-0.1,0.4-0.1,0.5-0.2c0.2,0,0.3,0,0.3,0.2l0.1,0.5c-0.2,0.1-0.4,0.2-0.7,0.4    c-0.3,0.1-0.7,0.2-1.1,0.3c-0.5,0.1-0.9,0.1-1.2,0.1c-0.4,0-0.7-0.2-0.9-0.4c-0.3-0.2-0.5-0.5-0.7-0.9c-0.2-0.4-0.3-0.9-0.5-1.4    c-0.1-0.6-0.2-1.1-0.1-1.5c0-0.4,0.1-0.8,0.3-1.1c0.2-0.3,0.4-0.5,0.7-0.7s0.6-0.3,1-0.4c0.5-0.1,0.9-0.1,1.2,0    c0.3,0.1,0.6,0.2,0.8,0.4c0.2,0.2,0.4,0.4,0.5,0.7c0.1,0.3,0.2,0.6,0.3,0.9c0,0.2,0.1,0.5,0.1,0.7c0,0.2,0,0.4,0,0.5L75.5,20.4z     M77.8,19c0-0.1,0-0.1,0-0.2s0-0.1,0-0.2c-0.1-0.5-0.3-0.9-0.5-1.1c-0.2-0.2-0.5-0.3-1-0.2c-0.3,0.1-0.5,0.1-0.6,0.3    c-0.2,0.1-0.3,0.3-0.3,0.5c-0.1,0.2-0.1,0.4-0.1,0.6c0,0.2,0,0.5,0.1,0.8L77.8,19z" />
            <path class="st316"
                d="M85.4,22c-0.2,0-0.3-0.1-0.3-0.3l0.1-6.8l-1.4,0.5c-0.1,0-0.1,0-0.2,0.1c0,0-0.1,0-0.1,0    c-0.1,0-0.2-0.1-0.2-0.2l0-0.7l0.6-0.2c0.7-0.3,1.2-0.5,1.6-0.6c0.4-0.1,0.6-0.2,0.8-0.2c0.1,0,0.2,0,0.2,0.1    c0,0.1,0.1,0.1,0.1,0.2L86.4,22L85.4,22z" />
            <path class="st316"
                d="M91.1,21.6c0.4,0.1,0.7,0.1,1,0c0.3,0,0.5-0.1,0.7-0.3c0.2-0.2,0.4-0.4,0.5-0.8c0.1-0.3,0.3-0.8,0.4-1.3    c-0.2,0.1-0.5,0.2-0.8,0.2c-0.3,0.1-0.6,0-1,0c-0.7-0.1-1.3-0.5-1.6-0.9c-0.3-0.5-0.4-1.2-0.2-2c0.1-0.4,0.2-0.7,0.3-1    c0.2-0.3,0.4-0.6,0.6-0.7c0.2-0.2,0.5-0.3,0.9-0.4c0.3-0.1,0.7-0.1,1.2,0c0.5,0.1,0.9,0.3,1.2,0.5c0.3,0.2,0.5,0.5,0.7,0.9    s0.2,0.8,0.2,1.3c0,0.5-0.1,1.1-0.2,1.8c-0.2,0.9-0.4,1.6-0.6,2.1c-0.2,0.5-0.5,1-0.8,1.3c-0.3,0.3-0.7,0.5-1.1,0.5    c-0.4,0.1-0.8,0.1-1.3,0c-0.3-0.1-0.6-0.1-0.9-0.2c-0.3-0.1-0.5-0.2-0.7-0.3c-0.1-0.1-0.2-0.1-0.2-0.2c0-0.1,0-0.2,0-0.2l0.1-0.5    c0.3,0.1,0.5,0.2,0.8,0.2C90.6,21.5,90.8,21.5,91.1,21.6z M92.4,18.5c0.2,0,0.5,0.1,0.7,0c0.3,0,0.5-0.1,0.8-0.2    c0.2-0.9,0.2-1.6,0.1-2.1c-0.1-0.5-0.5-0.8-1-0.9c-0.5-0.1-0.8,0-1.1,0.2c-0.3,0.2-0.5,0.6-0.5,1.1c0,0.2-0.1,0.5-0.1,0.7    c0,0.2,0,0.4,0.1,0.5c0.1,0.2,0.2,0.3,0.4,0.4C91.9,18.3,92.1,18.4,92.4,18.5z" />
            <path class="st316"
                d="M97.5,24.4c-0.8-0.3-1.4-0.7-1.7-1.3c-0.3-0.5-0.3-1.2,0-1.9c0.2-0.4,0.4-0.8,0.7-1.1    c0.3-0.3,0.7-0.4,1.2-0.5c-0.3-0.3-0.4-0.6-0.5-1c0-0.4,0-0.7,0.2-1.1c0.3-0.7,0.6-1.1,1.2-1.3c0.5-0.2,1.2-0.2,2,0.1    c0.8,0.3,1.3,0.7,1.6,1.2c0.3,0.5,0.3,1.1,0,1.8c-0.1,0.4-0.3,0.7-0.6,0.9c-0.3,0.3-0.6,0.4-1,0.5c0.4,0.4,0.6,0.7,0.6,1.1    c0,0.4,0,0.8-0.2,1.2c-0.3,0.8-0.7,1.2-1.3,1.4C99.1,24.8,98.4,24.7,97.5,24.4z M97.9,23.5c0.5,0.2,0.8,0.2,1.2,0.1    c0.3-0.1,0.6-0.4,0.8-0.9c0.1-0.2,0.1-0.4,0.1-0.6c0-0.2,0-0.4,0-0.5c-0.1-0.2-0.2-0.3-0.3-0.5c-0.2-0.1-0.4-0.3-0.7-0.4    c-0.3-0.1-0.5-0.2-0.8-0.2c-0.2,0-0.4,0-0.5,0.1c-0.1,0.1-0.3,0.2-0.4,0.4c-0.1,0.2-0.2,0.3-0.3,0.5c-0.2,0.5-0.2,0.9,0,1.2    C97.1,23.1,97.4,23.3,97.9,23.5z M99.2,19.8c0.3,0.1,0.5,0.1,0.7,0.1c0.2,0,0.4-0.1,0.5-0.1c0.1-0.1,0.2-0.2,0.3-0.3    c0.1-0.1,0.2-0.3,0.2-0.5c0.2-0.4,0.2-0.8,0-1c-0.1-0.3-0.4-0.5-0.8-0.7c-0.4-0.2-0.8-0.2-1.1-0.1c-0.3,0.1-0.5,0.4-0.7,0.8    c-0.1,0.2-0.1,0.3-0.1,0.5c0,0.2,0,0.3,0,0.5c0,0.2,0.1,0.3,0.3,0.4C98.8,19.6,99,19.7,99.2,19.8z" />
            <path class="st316"
                d="M102.6,25.3c0.4-0.4,0.8-0.7,1.2-1.1c0.4-0.4,0.9-0.7,1.3-1.1c0.5-0.4,0.9-0.7,1.3-1    c0.4-0.3,0.8-0.6,1.2-0.8l-3-1.7c-0.2-0.1-0.2-0.2-0.1-0.4l0.4-0.7l4,2.3c0.1,0,0.1,0.1,0.2,0.2c0,0.1,0,0.1,0,0.2l-0.3,0.6    c-1.2,0.8-2.2,1.6-3.2,2.4c-1,0.8-1.9,1.7-2.7,2.6l-0.8-0.4c-0.2-0.1-0.2-0.2-0.1-0.4C102.1,25.7,102.3,25.5,102.6,25.3z" />
        </g>
        <g>
            <path class="st316"
                d="M84.5,88.8c-9.1,0-17.8-3.9-23.9-10.8l1.2-1.1c6.7,7.6,16.7,11.3,26.7,10c10-1.3,18.7-7.5,23.2-16.6    l1.5,0.7c-4.8,9.6-13.9,16.1-24.4,17.5C87.3,88.7,85.9,88.8,84.5,88.8z" />
        </g>
        <g>
            <path class="st316"
                d="M84.4,103.9c-16.8,0-32.3-8.9-40.8-23.8l1.4-0.8c9.2,16.2,27.1,25,45.5,22.6c18.4-2.4,33.3-15.7,38-33.7    l1.6,0.4c-4.8,18.6-20.3,32.3-39.3,34.9C88.6,103.7,86.5,103.9,84.4,103.9z" />
        </g>
        <g>
            <path class="st316"
                d="M34.8,47.4c4-20.8,20.9-37.7,43-40.7s42.9,9,52.1,28l3.8-0.5c0.5-2,1.4-4.2,0.6-5.5    c-1.2-2.1-6.2-1.6-7.7-3.6c-1.5-1.9,0.2-6.6-1.5-8.3c-1.7-1.7-6.4,0-8.4-1.4c-1.9-1.5-1.5-6.5-3.6-7.7c-2.1-1.2-6.2,1.7-8.4,0.8    c-2.2-0.9-3.1-5.9-5.4-6.5c-2.3-0.6-5.5,3.2-8,2.9C89,4.6,86.9,0,84.5,0c-2.4,0-4.5,4.6-6.9,4.9s-5.7-3.5-8-2.9    c-2.4,0.6-3.2,5.6-5.4,6.5c-2.2,0.9-6.4-1.9-8.4-0.7c-2.1,1.2-1.6,6.2-3.6,7.7c-1.9,1.5-6.6-0.2-8.3,1.5c-1.7,1.7,0,6.4-1.4,8.4    c-1.5,1.9-6.5,1.5-7.7,3.6c-1.2,2.1,1.7,6.2,0.8,8.4c-0.9,2.2-5.9,3.1-6.5,5.4c-0.4,1.5,1.1,3.4,2.1,5.2L34.8,47.4z" />
        </g>
        <g>
            <path class="st316"
                d="M40.1,47l-1.6-0.4c4.3-19.2,20.2-33.8,39.7-36.4c19.5-2.6,38.7,7.4,47.8,24.8l-1.4,0.8    c-8.8-16.8-27.4-26.4-46.2-23.9C59.7,14.3,44.3,28.4,40.1,47z" />
        </g>
        <g>
            <path class="st316"
                d="M56.6,44.9l-1.5-0.6C59.5,34,69.2,26.6,80.2,25.2c11.1-1.5,22.3,3.1,29.3,11.9l-1.3,1    c-6.6-8.3-17.3-12.7-27.8-11.3C69.9,28.2,60.8,35.1,56.6,44.9z" />
        </g>
        <g>
            <path class="st316"
                d="M133.8,67.7c-4.5,20.1-21.1,36.3-42.7,39.2c-21.6,2.9-41.9-8.4-51.5-26.6l-4.2,0.6c-0.5,2-1.4,4.2-0.6,5.5    c1.2,2.1,6.2,1.6,7.7,3.6c1.5,1.9-0.2,6.6,1.5,8.3c1.7,1.7,6.4,0,8.4,1.4c1.9,1.5,1.5,6.5,3.6,7.7c2.1,1.2,6.2-1.7,8.4-0.8    c2.2,0.9,3.1,5.9,5.4,6.5c2.3,0.6,5.5-3.2,8-2.9c2.4,0.3,4.5,4.9,6.9,4.9c2.4,0,4.5-4.6,6.9-4.9s5.7,3.5,8,2.9    c2.4-0.6,3.2-5.6,5.4-6.5c2.2-0.9,6.4,1.9,8.4,0.7c2.1-1.2,1.6-6.2,3.6-7.7c1.9-1.5,6.6,0.2,8.3-1.5c1.7-1.7,0-6.4,1.4-8.4    c1.5-1.9,6.5-1.5,7.7-3.6c1.2-2.1-1.7-6.2-0.8-8.4c0.9-2.2,5.9-3.1,6.5-5.4c0.4-1.5-1.1-3.4-2.1-5.2L133.8,67.7z" />
        </g>
        <g>
            <g>
                <polygon class="st316"
                    points="88,90.8 89.5,94 93,93.5 90.4,95.9 92,99.1 88.9,97.4 86.3,99.8 87,96.4 83.9,94.7 87.4,94.2         " />
            </g>
        </g>
        <g>
            <g>
                <polygon class="st316"
                    points="74.9,90.6 76.2,93.2 79.1,92.8 77,94.8 78.2,97.5 75.7,96.1 73.6,98.1 74.1,95.2 71.5,93.8      74.4,93.5    " />
            </g>
        </g>
        <g>
            <g>
                <polygon class="st316"
                    points="100.9,87.2 102.1,89.8 105,89.4 102.9,91.4 104.2,94.1 101.6,92.7 99.5,94.7 100,91.8 97.5,90.4      100.4,90.1    " />
            </g>
        </g>
        <g>
            <path class="st316"
                d="M10.4,54.8l1.9-0.2c1.2-0.2,2-0.2,2.5-0.2c0.4,0.1,0.8,0.2,1,0.4c0.3,0.2,0.4,0.5,0.5,0.8    c0.1,0.3,0.2,0.9,0.3,1.8l0.4,3.3c0.1,0.8,0.1,1.4,0.1,1.7c0,0.3-0.2,0.5-0.3,0.7c-0.2,0.2-0.4,0.3-0.7,0.4    c-0.3,0.1-0.7,0.2-1.3,0.3l-3.1,0.4L10.4,54.8z M13.1,56l0.8,6.2c0.4,0,0.6-0.1,0.6-0.3c0.1-0.1,0.1-0.5,0-1.2L14,57.1    c-0.1-0.4-0.1-0.7-0.1-0.8c0-0.1-0.1-0.2-0.2-0.2C13.6,56,13.4,56,13.1,56z" />
            <path class="st316"
                d="M23.1,58.9l-3.1,0.4l0.2,1.7c0,0.3,0.1,0.6,0.2,0.7c0.1,0.1,0.2,0.1,0.3,0.1c0.2,0,0.3-0.1,0.3-0.2    c0-0.1,0-0.4,0-0.8l-0.1-1l2.3-0.3l0.1,0.6c0.1,0.5,0.1,0.8,0.1,1.1c0,0.3-0.1,0.6-0.3,0.9c-0.2,0.3-0.4,0.6-0.8,0.8    C21.9,62.8,21.5,63,21,63c-0.5,0.1-1,0.1-1.4,0c-0.4-0.1-0.7-0.3-1-0.5c-0.2-0.2-0.4-0.5-0.6-0.8c-0.1-0.3-0.2-0.7-0.3-1.3    l-0.3-2.2c-0.1-0.7-0.1-1.2,0.1-1.6c0.1-0.4,0.4-0.7,0.8-1c0.4-0.3,0.9-0.4,1.4-0.5c0.7-0.1,1.2,0,1.7,0.2c0.5,0.2,0.8,0.5,1,0.9    c0.2,0.4,0.4,1,0.5,1.7L23.1,58.9z M20.6,57.9l-0.1-0.6c-0.1-0.4-0.1-0.6-0.2-0.8c-0.1-0.1-0.2-0.2-0.3-0.1    c-0.2,0-0.3,0.1-0.3,0.2c0,0.1,0,0.4,0,0.8l0.1,0.6L20.6,57.9z" />
            <path class="st316"
                d="M28.3,54.1L28.2,62l-3.1,0.4l-2.2-7.5l2.1-0.3l1.4,5.5c0-0.4,0-1.4-0.1-3c0-0.9-0.1-1.8-0.1-2.6L28.3,54.1z    " />
            <path class="st316"
                d="M34.1,53.4l0.8,5.9c0.1,0.8,0.2,1.3,0.1,1.6c0,0.2-0.1,0.5-0.3,0.8c-0.2,0.3-0.5,0.5-0.9,0.7    c-0.4,0.2-0.9,0.3-1.5,0.4c-0.8,0.1-1.4,0.1-1.9-0.1c-0.5-0.2-0.8-0.7-0.9-1.4l2.3-0.3c0,0.3,0.2,0.5,0.4,0.5    c0.2,0,0.3-0.1,0.3-0.2c0-0.1,0-0.3,0-0.7l-0.1-0.6c-0.2,0.2-0.4,0.4-0.6,0.5c-0.2,0.1-0.4,0.2-0.7,0.2c-0.4,0.1-0.8,0-1.1-0.1    c-0.3-0.1-0.5-0.3-0.7-0.6c-0.1-0.3-0.2-0.6-0.3-1.2L28.8,56c-0.1-0.7,0-1.3,0.2-1.6c0.2-0.4,0.6-0.6,1.2-0.6c0.3,0,0.6,0,0.8,0.1    c0.3,0.1,0.5,0.2,0.7,0.5l0.1-0.6L34.1,53.4z M32,55.7c0-0.3-0.1-0.6-0.1-0.7c-0.1-0.1-0.2-0.1-0.3-0.1c-0.1,0-0.2,0.1-0.3,0.2    c0,0.1,0,0.3,0,0.7l0.3,2.6c0,0.3,0.1,0.6,0.2,0.7c0.1,0.1,0.2,0.1,0.3,0.1c0.2,0,0.3-0.1,0.3-0.2c0-0.1,0-0.4,0-0.8L32,55.7z" />
            <path class="st316"
                d="M37.4,56l-2.2,0.3l-0.1-0.5c-0.1-0.6-0.1-1.1,0-1.4c0.1-0.3,0.3-0.7,0.7-1c0.4-0.3,0.9-0.5,1.6-0.6    c0.8-0.1,1.4,0,1.9,0.2c0.4,0.2,0.7,0.5,0.9,0.9c0.1,0.4,0.3,1.2,0.5,2.5l0.5,3.9l-2.3,0.3l-0.1-0.7c-0.1,0.3-0.3,0.5-0.5,0.7    c-0.2,0.2-0.5,0.3-0.8,0.3c-0.4,0.1-0.8,0-1.2-0.2c-0.4-0.2-0.6-0.7-0.7-1.4l-0.1-0.6c-0.1-0.6,0-1,0.1-1.2    c0.2-0.2,0.6-0.5,1.3-0.9c0.7-0.4,1.1-0.7,1.2-0.8c0-0.1,0-0.3,0-0.6c-0.1-0.4-0.1-0.7-0.2-0.8c-0.1-0.1-0.2-0.2-0.3-0.1    c-0.2,0-0.3,0.1-0.3,0.2c0,0.1,0,0.4,0,0.8L37.4,56z M38.3,56.9c-0.3,0.3-0.5,0.6-0.6,0.8c0,0.2,0,0.5,0,0.8    c0.1,0.4,0.1,0.6,0.2,0.8c0.1,0.1,0.2,0.2,0.3,0.1c0.1,0,0.2-0.1,0.3-0.2c0-0.1,0-0.3,0-0.7L38.3,56.9z" />
            <path class="st316"
                d="M46.2,50.1l1.2,9.4L45,59.8L45,59.2c-0.2,0.3-0.4,0.5-0.7,0.6c-0.2,0.2-0.5,0.2-0.8,0.3c-0.4,0-0.7,0-1-0.2    c-0.3-0.2-0.5-0.4-0.6-0.6c-0.1-0.2-0.2-0.6-0.3-1.2l-0.5-3.6c-0.1-0.6-0.1-1,0-1.3c0-0.3,0.2-0.5,0.4-0.7    c0.3-0.2,0.6-0.4,0.9-0.4c0.3,0,0.6,0,0.8,0.1c0.3,0.1,0.5,0.2,0.7,0.4l-0.3-2.2L46.2,50.1z M44.3,54c0-0.3-0.1-0.5-0.1-0.6    c-0.1-0.1-0.2-0.1-0.3-0.1c-0.1,0-0.2,0.1-0.3,0.2c0,0.1,0,0.3,0,0.6l0.5,3.8c0,0.3,0.1,0.5,0.2,0.6c0.1,0.1,0.2,0.1,0.3,0.1    c0.2,0,0.2-0.1,0.3-0.2c0-0.1,0-0.4,0-0.8L44.3,54z" />
            <path class="st316" d="M54.3,49l0.2,1.9L53,51.1l1,7.5l-2.5,0.3l-1-7.5l-1.5,0.2l-0.2-1.9L54.3,49z" />
            <path class="st316"
                d="M57,53.4l-2.2,0.3l-0.1-0.5c-0.1-0.6-0.1-1.1,0-1.4c0.1-0.3,0.3-0.7,0.7-1c0.4-0.3,0.9-0.5,1.6-0.6    c0.8-0.1,1.4,0,1.9,0.2c0.4,0.2,0.7,0.5,0.9,0.9c0.1,0.4,0.3,1.2,0.5,2.5l0.5,3.9L58.4,58l-0.1-0.7c-0.1,0.3-0.3,0.5-0.5,0.7    c-0.2,0.2-0.5,0.3-0.8,0.3c-0.4,0.1-0.8,0-1.2-0.2c-0.4-0.2-0.6-0.7-0.7-1.4l-0.1-0.6c-0.1-0.6,0-1,0.1-1.2    c0.2-0.2,0.6-0.5,1.3-0.9c0.7-0.4,1.1-0.7,1.2-0.8c0-0.1,0-0.3,0-0.6c-0.1-0.4-0.1-0.7-0.2-0.8c-0.1-0.1-0.2-0.2-0.3-0.1    c-0.2,0-0.3,0.1-0.3,0.2c0,0.1,0,0.4,0,0.8L57,53.4z M57.9,54.4c-0.3,0.3-0.5,0.6-0.6,0.8c0,0.2,0,0.5,0,0.8    c0.1,0.4,0.1,0.6,0.2,0.8c0.1,0.1,0.2,0.2,0.3,0.1c0.1,0,0.2-0.1,0.3-0.2c0-0.1,0-0.3,0-0.7L57.9,54.4z" />
            <path class="st316" d="M62.8,47.9l1.2,9.4l-2.5,0.3l-1.2-9.4L62.8,47.9z" />
            <path class="st316"
                d="M69.3,48.8l1,7.7l-2.4,0.3l0-0.6c-0.1,0.3-0.3,0.5-0.5,0.7c-0.2,0.2-0.5,0.3-0.8,0.3c-0.4,0-0.7,0-0.9-0.1    c-0.3-0.1-0.4-0.2-0.6-0.4c-0.1-0.2-0.2-0.4-0.3-0.6c-0.1-0.2-0.1-0.7-0.2-1.3l-0.7-5.2l2.4-0.3l0.7,5.2c0.1,0.6,0.1,1,0.2,1.1    c0.1,0.1,0.2,0.2,0.3,0.1c0.2,0,0.3-0.1,0.3-0.2c0-0.1,0-0.5-0.1-1.1l-0.7-5.2L69.3,48.8z" />
            <path class="st316"
                d="M75.3,48l-0.6,3.2l1.9,4.5l-2.3,0.3l-1.2-3.2l0.4,3.3l-2.4,0.3L69.9,47l2.4-0.3l0.5,3.9l0.4-2.3L75.3,48z" />
            <path class="st316"
                d="M78.4,50.6l-2.2,0.3l-0.1-0.5c-0.1-0.6-0.1-1.1,0-1.4c0.1-0.3,0.3-0.7,0.7-1c0.4-0.3,0.9-0.5,1.6-0.6    c0.8-0.1,1.4,0,1.9,0.2c0.4,0.2,0.7,0.5,0.9,0.9c0.1,0.4,0.3,1.2,0.5,2.5l0.5,3.9l-2.3,0.3l-0.1-0.7c-0.1,0.3-0.3,0.5-0.5,0.7    c-0.2,0.2-0.5,0.3-0.8,0.3c-0.4,0.1-0.8,0-1.2-0.2c-0.4-0.2-0.6-0.7-0.7-1.4l-0.1-0.6c-0.1-0.6,0-1,0.1-1.2    c0.2-0.2,0.6-0.5,1.3-0.9c0.7-0.4,1.1-0.7,1.2-0.8c0-0.1,0-0.3,0-0.6c-0.1-0.4-0.1-0.7-0.2-0.8c-0.1-0.1-0.2-0.2-0.3-0.1    c-0.2,0-0.3,0.1-0.3,0.2c0,0.1,0,0.4,0,0.8L78.4,50.6z M79.3,51.6c-0.3,0.3-0.5,0.6-0.6,0.8c0,0.2,0,0.5,0,0.8    c0.1,0.4,0.1,0.6,0.2,0.8c0.1,0.1,0.2,0.2,0.3,0.1c0.1,0,0.2-0.1,0.3-0.2c0-0.1,0-0.3,0-0.7L79.3,51.6z" />
            <path class="st316"
                d="M88.3,44.6l2.6,9.2l-2.5,0.3L88,52.4l-0.9,0.1l0.1,1.7l-2.6,0.3l0-9.5L88.3,44.6z M87.7,50.8    c-0.3-1-0.6-2.3-0.9-3.9c0,1.8,0,3.2,0,4L87.7,50.8z" />
            <path class="st316"
                d="M92.6,45.7l0.1,0.7c0.1-0.3,0.3-0.6,0.6-0.7c0.2-0.2,0.5-0.3,0.8-0.3c0.6-0.1,1.2,0.1,1.6,0.7    c0.2-0.3,0.4-0.6,0.6-0.7c0.2-0.2,0.5-0.3,0.8-0.3c0.4-0.1,0.8,0,1,0.2c0.3,0.2,0.5,0.4,0.6,0.6c0.1,0.3,0.2,0.7,0.3,1.3l0.7,5.5    l-2.3,0.3l-0.7-5c-0.1-0.7-0.2-1.1-0.2-1.2c-0.1-0.2-0.2-0.2-0.3-0.2c-0.2,0-0.3,0.1-0.3,0.3c0,0.2,0,0.6,0.1,1.2l0.7,5l-2.3,0.3    l-0.6-4.9c-0.1-0.8-0.2-1.2-0.2-1.3c-0.1-0.1-0.2-0.2-0.3-0.2c-0.1,0-0.2,0.1-0.3,0.2c-0.1,0.1-0.1,0.2-0.1,0.3    c0,0.1,0,0.4,0.1,0.7l0.7,5.3l-2.3,0.3l-1-7.7L92.6,45.7z" />
            <path class="st316"
                d="M101.7,42.8L102,45c0.2-0.3,0.4-0.4,0.6-0.6c0.2-0.1,0.5-0.2,0.8-0.3c0.3,0,0.6,0,0.9,0    c0.3,0.1,0.5,0.2,0.6,0.4c0.1,0.2,0.2,0.3,0.3,0.5c0,0.2,0.1,0.5,0.2,1.1l0.5,3.5c0.1,0.6,0.1,1,0,1.3c0,0.3-0.2,0.5-0.4,0.8    c-0.3,0.2-0.6,0.4-1,0.4c-0.3,0-0.5,0-0.8-0.1c-0.3-0.1-0.5-0.2-0.7-0.5l-0.1,0.6l-2.2,0.3l-1.2-9.4L101.7,42.8z M103,46.6    c-0.1-0.4-0.1-0.7-0.2-0.8c-0.1-0.1-0.2-0.2-0.3-0.1c-0.1,0-0.2,0.1-0.3,0.2c0,0.1,0,0.4,0,0.8l0.4,3.3c0.1,0.4,0.1,0.7,0.2,0.8    c0.1,0.1,0.2,0.2,0.3,0.1c0.1,0,0.2-0.1,0.3-0.2c0-0.1,0-0.4,0-0.9L103,46.6z" />
            <path class="st316"
                d="M108.4,46.7l-2.2,0.3l-0.1-0.5c-0.1-0.6-0.1-1.1,0-1.4c0.1-0.3,0.3-0.7,0.7-1c0.4-0.3,0.9-0.5,1.6-0.6    c0.8-0.1,1.4,0,1.9,0.2c0.4,0.2,0.7,0.5,0.9,0.9c0.1,0.4,0.3,1.2,0.5,2.5l0.5,3.9l-2.3,0.3l-0.1-0.7c-0.1,0.3-0.3,0.5-0.5,0.7    c-0.2,0.2-0.5,0.3-0.8,0.3c-0.4,0.1-0.8,0-1.2-0.2c-0.4-0.2-0.6-0.7-0.7-1.4l-0.1-0.6c-0.1-0.6,0-1,0.1-1.2    c0.2-0.2,0.6-0.5,1.3-0.9c0.7-0.4,1.1-0.7,1.2-0.8c0-0.1,0-0.3,0-0.6c-0.1-0.4-0.1-0.7-0.2-0.8s-0.2-0.2-0.3-0.1    c-0.2,0-0.3,0.1-0.3,0.2c0,0.1,0,0.4,0,0.8L108.4,46.7z M109.2,47.6c-0.3,0.3-0.5,0.6-0.6,0.8c0,0.2,0,0.5,0,0.8    c0.1,0.4,0.1,0.6,0.2,0.8c0.1,0.1,0.2,0.2,0.3,0.1c0.1,0,0.2-0.1,0.3-0.2c0-0.1,0-0.3,0-0.7L109.2,47.6z" />
            <path class="st316"
                d="M119.5,40.5l0.8,6.3c0.1,0.7,0.1,1.2,0.1,1.5c0,0.3-0.1,0.6-0.3,0.9c-0.2,0.3-0.5,0.6-0.8,0.8    c-0.4,0.2-0.8,0.3-1.3,0.4c-0.6,0.1-1.1,0-1.5-0.1c-0.5-0.1-0.8-0.3-1.1-0.6c-0.3-0.3-0.4-0.6-0.5-0.9c-0.1-0.3-0.2-1-0.3-2.1    l-0.7-5.5l2.5-0.3l0.9,7c0.1,0.4,0.1,0.7,0.2,0.8c0.1,0.1,0.2,0.2,0.3,0.1c0.2,0,0.3-0.1,0.3-0.2c0-0.1,0-0.4,0-0.9l-0.9-6.9    L119.5,40.5z" />
            <path class="st316"
                d="M123,40.7l0.2,1.2l0.6-0.1L124,43l-0.6,0.1l0.5,4.1c0.1,0.5,0.1,0.8,0.2,0.8c0.1,0.1,0.3,0.1,0.7,0l0.2,1.2    l-1,0.1c-0.5,0.1-0.9,0.1-1.2,0.1c-0.2,0-0.5-0.1-0.7-0.2c-0.2-0.1-0.3-0.3-0.4-0.5c-0.1-0.2-0.2-0.7-0.3-1.4l-0.5-3.9l-0.5,0.1    l-0.2-1.2l0.5-0.1l-0.2-1.2L123,40.7z" />
            <path class="st316"
                d="M126.7,41.3l0,0.7c0.2-0.3,0.4-0.5,0.6-0.7c0.2-0.2,0.5-0.3,0.8-0.3c0.4,0,0.7,0,1,0.2    c0.3,0.2,0.5,0.4,0.6,0.6c0.1,0.2,0.2,0.7,0.3,1.3l0.4,3.2c0.1,0.7,0.1,1.2,0.1,1.5c0,0.3-0.2,0.6-0.4,0.8    c-0.2,0.2-0.5,0.3-0.9,0.4c-0.3,0-0.6,0-0.8-0.1c-0.3-0.1-0.5-0.3-0.8-0.5l0.2,1.8l-2.4,0.3l-1.1-8.8L126.7,41.3z M127.7,43.4    c-0.1-0.5-0.1-0.8-0.2-0.9c0-0.1-0.2-0.1-0.3-0.1c-0.2,0-0.2,0.1-0.3,0.2c0,0.1,0,0.4,0,0.8l0.4,3.2c0.1,0.5,0.1,0.7,0.2,0.9    c0.1,0.1,0.2,0.2,0.3,0.1c0.2,0,0.2-0.1,0.3-0.2c0-0.1,0-0.4,0-0.8L127.7,43.4z" />
            <path class="st316"
                d="M133.1,43.4l-2.2,0.3l-0.1-0.5c-0.1-0.6-0.1-1.1,0-1.4c0.1-0.3,0.3-0.7,0.7-1c0.4-0.3,0.9-0.5,1.6-0.6    c0.8-0.1,1.4,0,1.9,0.2c0.4,0.2,0.7,0.5,0.9,0.9c0.1,0.4,0.3,1.2,0.5,2.5l0.5,3.9l-2.3,0.3l-0.1-0.7c-0.1,0.3-0.3,0.5-0.5,0.7    c-0.2,0.2-0.5,0.3-0.8,0.3c-0.4,0.1-0.8,0-1.2-0.2c-0.4-0.2-0.6-0.7-0.7-1.4l-0.1-0.6c-0.1-0.6,0-1,0.1-1.2    c0.2-0.2,0.6-0.5,1.3-0.9c0.7-0.4,1.1-0.7,1.2-0.8c0-0.1,0-0.3,0-0.6c-0.1-0.4-0.1-0.7-0.2-0.8c-0.1-0.1-0.2-0.2-0.3-0.1    c-0.2,0-0.3,0.1-0.3,0.2c0,0.1,0,0.4,0,0.8L133.1,43.4z M134,44.4c-0.3,0.3-0.5,0.6-0.6,0.8c0,0.2,0,0.5,0,0.8    c0.1,0.4,0.1,0.6,0.2,0.8c0.1,0.1,0.2,0.2,0.3,0.1c0.1,0,0.2-0.1,0.3-0.2c0-0.1,0-0.3,0-0.7L134,44.4z" />
            <path class="st316"
                d="M141.9,37.6l1.2,9.4l-2.4,0.3l-0.1-0.6c-0.2,0.3-0.4,0.5-0.7,0.6c-0.2,0.2-0.5,0.2-0.8,0.3    c-0.4,0-0.7,0-1-0.2c-0.3-0.2-0.5-0.4-0.6-0.6c-0.1-0.2-0.2-0.6-0.3-1.2l-0.5-3.6c-0.1-0.6-0.1-1,0-1.3c0-0.3,0.2-0.5,0.4-0.7    c0.3-0.2,0.6-0.4,0.9-0.4c0.3,0,0.6,0,0.8,0.1c0.3,0.1,0.5,0.2,0.7,0.4l-0.3-2.2L141.9,37.6z M140,41.5c0-0.3-0.1-0.5-0.1-0.6    c-0.1-0.1-0.2-0.1-0.3-0.1c-0.1,0-0.2,0.1-0.3,0.2c0,0.1,0,0.3,0,0.6l0.5,3.8c0,0.3,0.1,0.5,0.2,0.6c0.1,0.1,0.2,0.1,0.3,0.1    c0.2,0,0.2-0.1,0.3-0.2c0-0.1,0-0.4,0-0.8L140,41.5z" />
            <path class="st316"
                d="M145.5,41.8l-2.2,0.3l-0.1-0.5c-0.1-0.6-0.1-1.1,0-1.4c0.1-0.3,0.3-0.7,0.7-1c0.4-0.3,0.9-0.5,1.6-0.6    c0.8-0.1,1.4,0,1.9,0.2c0.4,0.2,0.7,0.5,0.9,0.9c0.1,0.4,0.3,1.2,0.5,2.5l0.5,3.9l-2.3,0.3l-0.1-0.7c-0.1,0.3-0.3,0.5-0.5,0.7    c-0.2,0.2-0.5,0.3-0.8,0.3c-0.4,0.1-0.8,0-1.2-0.2c-0.4-0.2-0.6-0.7-0.7-1.4l-0.1-0.6c-0.1-0.6,0-1,0.1-1.2    c0.2-0.2,0.6-0.5,1.3-0.9c0.7-0.4,1.1-0.7,1.2-0.8c0-0.1,0-0.3,0-0.6c-0.1-0.4-0.1-0.7-0.2-0.8s-0.2-0.2-0.3-0.1    c-0.2,0-0.3,0.1-0.3,0.2c0,0.1,0,0.4,0,0.8L145.5,41.8z M146.4,42.8c-0.3,0.3-0.5,0.6-0.6,0.8c0,0.2,0,0.5,0,0.8    c0.1,0.4,0.1,0.6,0.2,0.8c0.1,0.1,0.2,0.2,0.3,0.1c0.1,0,0.2-0.1,0.3-0.2c0-0.1,0-0.3,0-0.7L146.4,42.8z" />
            <path class="st316"
                d="M154.2,37.7l-0.6,3.2l1.9,4.5l-2.3,0.3l-1.2-3.2l0.4,3.3L150,46l-1.2-9.4l2.4-0.3l0.5,3.9l0.4-2.3    L154.2,37.7z" />
            <path class="st316"
                d="M23.6,70.4l-2.3,0.3L21.2,70c0-0.3-0.1-0.5-0.2-0.6c-0.1-0.1-0.2-0.1-0.3-0.1c-0.1,0-0.3,0.1-0.3,0.2    c-0.1,0.1-0.1,0.3,0,0.6c0,0.3,0.1,0.5,0.2,0.7c0.1,0.1,0.4,0.3,0.8,0.5c1.2,0.5,2,0.9,2.3,1.3c0.3,0.4,0.6,1,0.7,1.9    c0.1,0.7,0.1,1.2,0,1.5c-0.1,0.3-0.4,0.6-0.8,0.9c-0.4,0.3-0.9,0.4-1.5,0.5c-0.7,0.1-1.2,0-1.7-0.1c-0.5-0.2-0.8-0.5-1-0.8    c-0.2-0.4-0.3-0.9-0.4-1.6l-0.1-0.6l2.3-0.3l0.1,1.1c0,0.3,0.1,0.6,0.2,0.7c0.1,0.1,0.2,0.1,0.4,0.1c0.2,0,0.3-0.1,0.3-0.2    c0.1-0.1,0.1-0.3,0-0.6c-0.1-0.6-0.2-0.9-0.4-1.1c-0.2-0.1-0.6-0.4-1.3-0.7c-0.7-0.3-1.1-0.6-1.3-0.7s-0.4-0.4-0.6-0.7    c-0.2-0.3-0.3-0.7-0.4-1.2C18,70,18,69.4,18.1,69.1c0.1-0.4,0.4-0.7,0.8-0.9c0.4-0.2,0.9-0.4,1.5-0.5c0.6-0.1,1.2-0.1,1.7,0.1    c0.5,0.1,0.8,0.4,1,0.7c0.2,0.3,0.3,0.8,0.4,1.6L23.6,70.4z" />
            <path class="st316"
                d="M26.9,71.8l-2.2,0.3l-0.1-0.5c-0.1-0.6-0.1-1.1,0-1.4s0.3-0.7,0.7-1c0.4-0.3,0.9-0.5,1.6-0.6    c0.8-0.1,1.4,0,1.9,0.2c0.4,0.2,0.7,0.5,0.9,0.9c0.1,0.4,0.3,1.2,0.5,2.5l0.5,3.9l-2.3,0.3l-0.1-0.7c-0.1,0.3-0.3,0.5-0.5,0.7    c-0.2,0.2-0.5,0.3-0.8,0.3c-0.4,0.1-0.8,0-1.2-0.2c-0.4-0.2-0.6-0.7-0.7-1.4l-0.1-0.6c-0.1-0.6,0-1,0.1-1.2    c0.2-0.2,0.6-0.5,1.3-0.9c0.7-0.4,1.1-0.7,1.2-0.8c0-0.1,0-0.3,0-0.6c-0.1-0.4-0.1-0.7-0.2-0.8C27.2,70,27.1,70,27,70    c-0.2,0-0.3,0.1-0.3,0.2c0,0.1,0,0.4,0,0.8L26.9,71.8z M27.7,72.8c-0.3,0.3-0.5,0.6-0.6,0.8c0,0.2,0,0.5,0,0.8    c0.1,0.4,0.1,0.6,0.2,0.8c0.1,0.1,0.2,0.2,0.3,0.1c0.1,0,0.2-0.1,0.3-0.2c0-0.1,0-0.3,0-0.7L27.7,72.8z" />
            <path class="st316"
                d="M32.6,66.3l0.3,2.1c0.2-0.2,0.4-0.4,0.6-0.5c0.2-0.1,0.5-0.2,0.7-0.2c0.4-0.1,0.8,0,1.1,0.2    c0.3,0.2,0.5,0.4,0.6,0.6c0.1,0.3,0.2,0.8,0.3,1.5l0.7,5.3l-2.4,0.3l-0.7-5.4c-0.1-0.4-0.1-0.7-0.2-0.9c-0.1-0.1-0.2-0.2-0.3-0.2    c-0.1,0-0.2,0.1-0.3,0.2c0,0.1,0,0.4,0,0.8l0.7,5.5L31.4,76l-1.2-9.4L32.6,66.3z" />
            <path class="st316"
                d="M39.3,70.2L37,70.5L37,70c-0.1-0.6-0.1-1.1,0-1.4c0.1-0.3,0.3-0.7,0.7-1c0.4-0.3,0.9-0.5,1.6-0.6    c0.8-0.1,1.4,0,1.9,0.2c0.4,0.2,0.7,0.5,0.9,0.9c0.1,0.4,0.3,1.2,0.5,2.5l0.5,3.9l-2.3,0.3l-0.1-0.7c-0.1,0.3-0.3,0.5-0.5,0.7    c-0.2,0.2-0.5,0.3-0.8,0.3c-0.4,0.1-0.8,0-1.2-0.2c-0.4-0.2-0.6-0.7-0.7-1.4l-0.1-0.6c-0.1-0.6,0-1,0.1-1.2    c0.2-0.2,0.6-0.5,1.3-0.9c0.7-0.4,1.1-0.7,1.2-0.8c0-0.1,0-0.3,0-0.6c-0.1-0.4-0.1-0.7-0.2-0.8c-0.1-0.1-0.2-0.2-0.3-0.1    c-0.2,0-0.3,0.1-0.3,0.2s0,0.4,0,0.8L39.3,70.2z M40.2,71.1c-0.3,0.3-0.5,0.6-0.6,0.8c0,0.2,0,0.5,0,0.8c0.1,0.4,0.1,0.6,0.2,0.8    c0.1,0.1,0.2,0.2,0.3,0.1c0.1,0,0.2-0.1,0.3-0.2c0-0.1,0-0.3,0-0.7L40.2,71.1z" />
            <path class="st316"
                d="M48,66l-0.6,3.2l1.9,4.5L47,74l-1.2-3.2l0.4,3.3l-2.4,0.3L42.6,65l2.4-0.3l0.5,3.9l0.4-2.3L48,66z" />
            <path class="st316"
                d="M51.1,68.6l-2.2,0.3l-0.1-0.5c-0.1-0.6-0.1-1.1,0-1.4c0.1-0.3,0.3-0.7,0.7-1c0.4-0.3,0.9-0.5,1.6-0.6    c0.8-0.1,1.4,0,1.9,0.2c0.4,0.2,0.7,0.5,0.9,0.9c0.1,0.4,0.3,1.2,0.5,2.5l0.5,3.9l-2.3,0.3l-0.1-0.7c-0.1,0.3-0.3,0.5-0.5,0.7    c-0.2,0.2-0.5,0.3-0.8,0.3c-0.4,0.1-0.8,0-1.2-0.2c-0.4-0.2-0.6-0.7-0.7-1.4l-0.1-0.6c-0.1-0.6,0-1,0.1-1.2    c0.2-0.2,0.6-0.5,1.3-0.9c0.7-0.4,1.1-0.7,1.2-0.8c0-0.1,0-0.3,0-0.6c-0.1-0.4-0.1-0.7-0.2-0.8c-0.1-0.1-0.2-0.2-0.3-0.1    c-0.2,0-0.3,0.1-0.3,0.2c0,0.1,0,0.4,0,0.8L51.1,68.6z M52,69.6c-0.3,0.3-0.5,0.6-0.6,0.8c0,0.2,0,0.5,0,0.8    c0.1,0.4,0.1,0.6,0.2,0.8c0.1,0.1,0.2,0.2,0.3,0.1c0.1,0,0.2-0.1,0.3-0.2c0-0.1,0-0.3,0-0.7L52,69.6z" />
            <path class="st316"
                d="M57.1,64.8l0,1c0.3-0.8,0.7-1.2,1.4-1.3l0.4,2.7c-0.4,0.1-0.7,0.2-0.9,0.3c-0.2,0.1-0.3,0.3-0.3,0.5    c0,0.2,0,0.7,0.1,1.4l0.4,3l-2.4,0.3l-1-7.7L57.1,64.8z" />
            <path class="st316"
                d="M61.2,62.6l0.2,1.2l-2.5,0.3l-0.2-1.2L61.2,62.6z M61.4,64.3l1,7.7L60,72.3l-1-7.7L61.4,64.3z" />
            <path class="st316"
                d="M69.9,64.3l-2.3,0.3l-0.1-0.7c0-0.3-0.1-0.5-0.2-0.6c-0.1-0.1-0.2-0.1-0.3-0.1c-0.2,0-0.3,0.1-0.3,0.2    c-0.1,0.1-0.1,0.3,0,0.6c0,0.3,0.1,0.5,0.2,0.7c0.1,0.1,0.4,0.3,0.8,0.5c1.2,0.5,2,0.9,2.3,1.3c0.3,0.4,0.6,1,0.7,1.9    c0.1,0.7,0.1,1.2,0,1.5c-0.1,0.3-0.4,0.6-0.8,0.9c-0.4,0.3-0.9,0.4-1.5,0.5c-0.7,0.1-1.2,0-1.7-0.1c-0.5-0.2-0.8-0.5-1-0.8    c-0.2-0.4-0.3-0.9-0.4-1.6l-0.1-0.6l2.3-0.3l0.1,1.1c0,0.3,0.1,0.6,0.2,0.7c0.1,0.1,0.2,0.1,0.4,0.1c0.2,0,0.3-0.1,0.3-0.2    c0.1-0.1,0.1-0.3,0-0.6c-0.1-0.6-0.2-0.9-0.4-1.1c-0.2-0.1-0.6-0.4-1.3-0.7c-0.7-0.3-1.1-0.6-1.3-0.7c-0.2-0.2-0.4-0.4-0.6-0.7    c-0.2-0.3-0.3-0.7-0.4-1.2c-0.1-0.7-0.1-1.3,0.1-1.6c0.1-0.4,0.4-0.7,0.8-0.9s0.9-0.4,1.5-0.5c0.6-0.1,1.2-0.1,1.7,0.1    c0.5,0.1,0.8,0.4,1,0.7c0.2,0.3,0.3,0.8,0.4,1.6L69.9,64.3z" />
            <path class="st316"
                d="M73.2,65.7L71,66l-0.1-0.5c-0.1-0.6-0.1-1.1,0-1.4c0.1-0.3,0.3-0.7,0.7-1c0.4-0.3,0.9-0.5,1.6-0.6    c0.8-0.1,1.4,0,1.9,0.2c0.4,0.2,0.7,0.5,0.9,0.9c0.1,0.4,0.3,1.2,0.5,2.5l0.5,3.9l-2.3,0.3l-0.1-0.7c-0.1,0.3-0.3,0.5-0.5,0.7    s-0.5,0.3-0.8,0.3c-0.4,0.1-0.8,0-1.2-0.2c-0.4-0.2-0.6-0.7-0.7-1.4l-0.1-0.6c-0.1-0.6,0-1,0.1-1.2c0.2-0.2,0.6-0.5,1.3-0.9    c0.7-0.4,1.1-0.7,1.2-0.8c0-0.1,0-0.3,0-0.6c-0.1-0.4-0.1-0.7-0.2-0.8c-0.1-0.1-0.2-0.2-0.3-0.1c-0.2,0-0.3,0.1-0.3,0.2    c0,0.1,0,0.4,0,0.8L73.2,65.7z M74.1,66.7c-0.3,0.3-0.5,0.6-0.6,0.8c0,0.2,0,0.5,0,0.8c0.1,0.4,0.1,0.6,0.2,0.8    c0.1,0.1,0.2,0.2,0.3,0.1c0.2,0,0.2-0.1,0.3-0.2c0-0.1,0-0.3,0-0.7L74.1,66.7z" />
            <path class="st316"
                d="M79.2,61.9l0.1,0.7c0.1-0.3,0.3-0.5,0.6-0.7c0.2-0.2,0.5-0.3,0.8-0.3c0.4-0.1,0.8,0,1,0.2    c0.3,0.2,0.5,0.4,0.6,0.6c0.1,0.3,0.2,0.8,0.3,1.4l0.7,5.4l-2.4,0.3l-0.7-5.3c-0.1-0.5-0.1-0.8-0.2-1c0-0.1-0.2-0.2-0.3-0.1    c-0.2,0-0.3,0.1-0.3,0.2c0,0.1,0,0.5,0.1,1.1l0.7,5.2l-2.4,0.3l-1-7.7L79.2,61.9z" />
            <path class="st316"
                d="M88.2,63.2l-2.1,0.3l-0.1-0.4c0-0.4-0.1-0.6-0.2-0.7c-0.1-0.1-0.2-0.1-0.3-0.1c-0.1,0-0.2,0.1-0.3,0.2    c-0.1,0.1-0.1,0.2,0,0.4c0,0.2,0.1,0.4,0.1,0.5c0,0.1,0.2,0.2,0.3,0.3c0.2,0.1,0.6,0.3,1.1,0.4c0.7,0.2,1.2,0.5,1.5,0.8    c0.3,0.3,0.4,0.7,0.5,1.2c0.1,0.6,0.1,1.1-0.1,1.4c-0.1,0.3-0.4,0.6-0.7,0.8c-0.4,0.2-0.8,0.4-1.4,0.4c-0.6,0.1-1.1,0.1-1.6-0.1    c-0.5-0.1-0.8-0.3-1-0.6c-0.2-0.3-0.3-0.8-0.4-1.4l0-0.4l2.1-0.3l0.1,0.5c0.1,0.4,0.1,0.7,0.2,0.8c0.1,0.1,0.2,0.2,0.3,0.1    c0.2,0,0.3-0.1,0.3-0.2c0.1-0.1,0.1-0.3,0-0.5c0-0.4-0.1-0.6-0.2-0.7c-0.1-0.1-0.6-0.3-1.5-0.6c-0.7-0.3-1.2-0.6-1.4-0.9    c-0.2-0.3-0.3-0.7-0.4-1.1c-0.1-0.6-0.1-1.1,0.1-1.4c0.1-0.3,0.4-0.6,0.8-0.8c0.4-0.2,0.8-0.3,1.3-0.4c0.5-0.1,1-0.1,1.3,0    c0.4,0.1,0.7,0.2,0.9,0.4c0.2,0.2,0.4,0.4,0.4,0.5c0.1,0.2,0.1,0.5,0.2,0.8L88.2,63.2z" />
            <path class="st316"
                d="M91.1,59.3l0.2,1.2l0.6-0.1l0.2,1.2l-0.6,0.1l0.5,4.1c0.1,0.5,0.1,0.8,0.2,0.8s0.3,0.1,0.7,0l0.2,1.2    l-1,0.1c-0.5,0.1-0.9,0.1-1.2,0.1c-0.2,0-0.5-0.1-0.7-0.2c-0.2-0.1-0.3-0.3-0.4-0.5c-0.1-0.2-0.2-0.7-0.3-1.4l-0.5-3.9l-0.5,0.1    l-0.2-1.2l0.5-0.1l-0.2-1.2L91.1,59.3z" />
            <path class="st316"
                d="M94.6,58.2l0.3,2.1c0.2-0.2,0.4-0.4,0.6-0.5c0.2-0.1,0.5-0.2,0.7-0.2c0.4-0.1,0.8,0,1.1,0.2    c0.3,0.2,0.5,0.4,0.6,0.6c0.1,0.3,0.2,0.8,0.3,1.5l0.7,5.3l-2.4,0.3l-0.7-5.4c-0.1-0.4-0.1-0.7-0.2-0.9c-0.1-0.1-0.2-0.2-0.3-0.2    c-0.1,0-0.2,0.1-0.3,0.2c0,0.1,0,0.4,0,0.8l0.7,5.5l-2.4,0.3l-1.2-9.4L94.6,58.2z" />
            <path class="st316"
                d="M101.3,62.1L99,62.4L99,61.9c-0.1-0.6-0.1-1.1,0-1.4c0.1-0.3,0.3-0.7,0.7-1c0.4-0.3,0.9-0.5,1.6-0.6    c0.8-0.1,1.4,0,1.9,0.2c0.4,0.2,0.7,0.5,0.9,0.9c0.1,0.4,0.3,1.2,0.5,2.5l0.5,3.9l-2.3,0.3l-0.1-0.7c-0.1,0.3-0.3,0.5-0.5,0.7    c-0.2,0.2-0.5,0.3-0.8,0.3c-0.4,0.1-0.8,0-1.2-0.2c-0.4-0.2-0.6-0.7-0.7-1.4l-0.1-0.6c-0.1-0.6,0-1,0.1-1.2    c0.2-0.2,0.6-0.5,1.3-0.9c0.7-0.4,1.1-0.7,1.2-0.8c0-0.1,0-0.3,0-0.6c-0.1-0.4-0.1-0.7-0.2-0.8c-0.1-0.1-0.2-0.2-0.3-0.1    c-0.2,0-0.3,0.1-0.3,0.2c0,0.1,0,0.4,0,0.8L101.3,62.1z M102.2,63c-0.3,0.3-0.5,0.6-0.6,0.8c0,0.2,0,0.5,0,0.8    c0.1,0.4,0.1,0.6,0.2,0.8c0.1,0.1,0.2,0.2,0.3,0.1c0.1,0,0.2-0.1,0.3-0.2c0-0.1,0-0.3,0-0.7L102.2,63z" />
            <path class="st316"
                d="M114.5,55.6l1.2,9.4l-2.2,0.3l-0.8-6.3l0,6.4l-1.5,0.2l-1.7-6.1l0.8,6.2L108,66l-1.2-9.4l3.2-0.4    c0.2,0.5,0.4,1.2,0.6,2l0.7,2.3l0-4.4L114.5,55.6z" />
            <path class="st316"
                d="M118.1,59.9l-2.2,0.3l-0.1-0.5c-0.1-0.6-0.1-1.1,0-1.4c0.1-0.3,0.3-0.7,0.7-1c0.4-0.3,0.9-0.5,1.6-0.6    c0.8-0.1,1.4,0,1.9,0.2c0.4,0.2,0.7,0.5,0.9,0.9c0.1,0.4,0.3,1.2,0.5,2.5l0.5,3.9l-2.3,0.3l-0.1-0.7c-0.1,0.3-0.3,0.5-0.5,0.7    s-0.5,0.3-0.8,0.3c-0.4,0.1-0.8,0-1.2-0.2c-0.4-0.2-0.6-0.7-0.7-1.4l-0.1-0.6c-0.1-0.6,0-1,0.1-1.2c0.2-0.2,0.6-0.5,1.3-0.9    c0.7-0.4,1.1-0.7,1.2-0.8c0-0.1,0-0.3,0-0.6c-0.1-0.4-0.1-0.7-0.2-0.8c-0.1-0.1-0.2-0.2-0.3-0.1c-0.2,0-0.3,0.1-0.3,0.2    c0,0.1,0,0.4,0,0.8L118.1,59.9z M119,60.8c-0.3,0.3-0.5,0.6-0.6,0.8c0,0.2,0,0.5,0,0.8c0.1,0.4,0.1,0.6,0.2,0.8    c0.1,0.1,0.2,0.2,0.3,0.1c0.1,0,0.2-0.1,0.3-0.2c0-0.1,0-0.3,0-0.7L119,60.8z" />
            <path class="st316"
                d="M124.1,56.1l0,1c0.3-0.8,0.7-1.2,1.4-1.3l0.4,2.7c-0.4,0.1-0.7,0.2-0.9,0.3c-0.2,0.1-0.3,0.3-0.3,0.5    c0,0.2,0,0.7,0.1,1.4l0.4,3l-2.4,0.3l-1-7.7L124.1,56.1z" />
            <path class="st316"
                d="M131.2,55.1l0,5.6c0,0.9,0,1.5,0,1.8c0,0.3-0.1,0.6-0.3,0.8c-0.1,0.2-0.4,0.4-0.6,0.6    c-0.3,0.1-0.8,0.3-1.4,0.3l-1.4,0.2l-0.2-1.2c0.4,0,0.6-0.1,0.7-0.1c0.1-0.1,0.1-0.1,0.1-0.3c0-0.1-0.1-0.3-0.3-0.8l-2.1-6.3    l2.2-0.3l1.5,5.1l-0.3-5.2L131.2,55.1z" />
            <path class="st316"
                d="M134.2,57.8l-2.2,0.3l-0.1-0.5c-0.1-0.6-0.1-1.1,0-1.4s0.3-0.7,0.7-1c0.4-0.3,0.9-0.5,1.6-0.6    c0.8-0.1,1.4,0,1.9,0.2c0.4,0.2,0.7,0.5,0.9,0.9c0.1,0.4,0.3,1.2,0.5,2.5l0.5,3.9l-2.3,0.3l-0.1-0.7c-0.1,0.3-0.3,0.5-0.5,0.7    c-0.2,0.2-0.5,0.3-0.8,0.3c-0.4,0.1-0.8,0-1.2-0.2c-0.4-0.2-0.6-0.7-0.7-1.4l-0.1-0.6c-0.1-0.6,0-1,0.1-1.2    c0.2-0.2,0.6-0.5,1.3-0.9c0.7-0.4,1.1-0.7,1.2-0.8c0-0.1,0-0.3,0-0.6c-0.1-0.4-0.1-0.7-0.2-0.8c-0.1-0.1-0.2-0.2-0.3-0.1    c-0.2,0-0.3,0.1-0.3,0.2c0,0.1,0,0.4,0,0.8L134.2,57.8z M135,58.7c-0.3,0.3-0.5,0.6-0.6,0.8c0,0.2,0,0.5,0,0.8    c0.1,0.4,0.1,0.6,0.2,0.8c0.1,0.1,0.2,0.2,0.3,0.1c0.1,0,0.2-0.1,0.3-0.2c0-0.1,0-0.3,0-0.7L135,58.7z" />
            <path class="st316"
                d="M142.9,51.9l1.2,9.4l-2.4,0.3l-0.1-0.6c-0.2,0.3-0.4,0.5-0.7,0.6c-0.2,0.2-0.5,0.2-0.8,0.3    c-0.4,0-0.7,0-1-0.2c-0.3-0.2-0.5-0.4-0.6-0.6c-0.1-0.2-0.2-0.6-0.3-1.2l-0.5-3.6c-0.1-0.6-0.1-1,0-1.3c0-0.3,0.2-0.5,0.4-0.7    c0.2-0.2,0.6-0.4,0.9-0.4c0.3,0,0.6,0,0.8,0.1c0.3,0.1,0.5,0.2,0.7,0.4l-0.3-2.2L142.9,51.9z M141,55.8c0-0.3-0.1-0.5-0.1-0.6    c-0.1-0.1-0.2-0.1-0.3-0.1c-0.1,0-0.2,0.1-0.3,0.2c0,0.1,0,0.3,0,0.6l0.5,3.8c0,0.3,0.1,0.5,0.2,0.6c0.1,0.1,0.2,0.1,0.3,0.1    c0.2,0,0.2-0.1,0.3-0.2c0-0.1,0-0.4,0-0.8L141,55.8z" />
            <path class="st316"
                d="M146.2,51.4l0.2,1.2l-2.5,0.3l-0.2-1.2L146.2,51.4z M146.4,53.1l1,7.7l-2.5,0.3l-1-7.7L146.4,53.1z" />
            <path class="st316"
                d="M149.7,51.7l0.2,1.2l0.6-0.1l0.2,1.2l-0.6,0.1l0.5,4.1c0.1,0.5,0.1,0.8,0.2,0.8c0.1,0.1,0.3,0.1,0.7,0    l0.2,1.2l-1,0.1c-0.5,0.1-0.9,0.1-1.2,0.1c-0.2,0-0.5-0.1-0.7-0.2c-0.2-0.1-0.3-0.3-0.4-0.5c-0.1-0.2-0.2-0.7-0.3-1.4l-0.5-3.9    l-0.5,0.1l-0.2-1.2l0.5-0.1l-0.2-1.2L149.7,51.7z" />
        </g>
        <g>

            <rect x="-0.5" y="39.2" transform="matrix(0.9916 -0.1296 0.1296 0.9916 -4.5629 10.8904)" class="st316"
                width="163.9" height="2.6" />
        </g>
        <g>

            <rect x="4" y="73.5" transform="matrix(0.9916 -0.1296 0.1296 0.9916 -8.965 11.7604)" class="st316"
                width="163.9" height="2.6" />
        </g>
    </g>
</svg>